# xmcd
#
# Track frame offsets:
#	150
#	17612
#	39507
#	64585
#	84812
#	112862
#	140090
#	156352
#	177635
#	196575
#
# Disc length: 2836 seconds
#
# Revision: 1677786916
# Processed by: cddbd v1.5.2PL0 Copyright (c) Steve Scherf et al.
# Submitted via: EZCDAudioConverter 9.0.6.1
#
DISCID=780b120a
DTITLE=Blues - A Celebration of Blues, The Great Guitarists
DYEAR=1996
DGENRE=Blues
TTITLE0=Robert Cray and Albert Collins - She's Into Something
TTITLE1=Duke Robillard - Glamour Girl
TTITLE2=Luther "Guitar Junior" Johnson - If The Blues Was Whiskey
TTITLE3=Son Seals - Frankie and Johnnie
TTITLE4=Tinsley Ellis - A Quitter Never Wins
TTITLE5=Jimmy Rogers feat Ronnie Earl and The Broadcasters - Got My Mojo Working
TTITLE5=(Jimmy Rogers and Ronnie Earl)
TTITLE6=Elvin Bishop - She Puts Me In The Mood
TTITLE7=Anson Funderburgh - Down At J.J.'s
TTITLE8=Clarence "Gatemouth" Brown - Better Off With The Blues
TTITLE9=Lonnie Mack feat Stevie Ray Vaughn - Double Whammy (Lonnie Mack and Stev
TTITLE9=ie Ray Vaughn)
EXTD=
EXTT0=
EXTT1=
EXTT2=
EXTT3=
EXTT4=
EXTT5=
EXTT6=
EXTT7=
EXTT8=
EXTT9=
PLAYORDER=
